<svg width="302" height="120" viewBox="0 0 302 120" fill="none" xmlns="http://www.w3.org/2000/svg">
<rect width="302" height="120" fill="#D9D9D9"/>
<path d="M37.392 48V14.4H42.576V48H37.392ZM8.736 48V14.4H13.92V48H8.736ZM10.992 33.936L11.04 28.944H39.696V33.936H10.992ZM55.7441 48L72.1601 14.4H78.2081L94.5281 48H88.8161L77.5361 24.864C77.2481 24.256 76.9601 23.664 76.6721 23.088C76.3841 22.512 76.0961 21.936 75.8081 21.36C75.5521 20.784 75.2961 20.176 75.0401 19.536C74.7841 18.896 74.5281 18.192 74.2721 17.424L75.8081 17.376C75.5201 18.144 75.2321 18.864 74.9441 19.536C74.6881 20.208 74.4161 20.848 74.1281 21.456C73.8401 22.064 73.5521 22.672 73.2641 23.28C72.9761 23.856 72.6881 24.448 72.4001 25.056L61.2161 48H55.7441ZM62.8961 40.128L64.9601 35.136H84.8801L85.6961 40.128H62.8961ZM111.385 39.648V33.744L136.153 14.4H143.833L111.385 39.648ZM107.689 48V14.4H112.873V48H107.689ZM136.249 48L121.513 29.808L124.729 25.68L143.161 48H136.249ZM154.791 48L171.207 14.4H177.255L193.575 48H187.863L176.583 24.864C176.295 24.256 176.007 23.664 175.719 23.088C175.431 22.512 175.143 21.936 174.855 21.36C174.599 20.784 174.343 20.176 174.087 19.536C173.831 18.896 173.575 18.192 173.319 17.424L174.855 17.376C174.567 18.144 174.279 18.864 173.991 19.536C173.735 20.208 173.463 20.848 173.175 21.456C172.887 22.064 172.599 22.672 172.311 23.28C172.023 23.856 171.735 24.448 171.447 25.056L160.263 48H154.791ZM161.943 40.128L164.007 35.136H183.927L184.743 40.128H161.943ZM206.736 48V14.4H211.92V43.008H234.384V48H206.736ZM266.635 48.48C263.66 48.48 260.94 48.048 258.476 47.184C256.012 46.288 253.868 45.056 252.044 43.488C250.22 41.888 248.812 40.048 247.82 37.968C246.828 35.856 246.332 33.6 246.332 31.2C246.332 28.8 246.828 26.56 247.82 24.48C248.812 22.368 250.22 20.528 252.044 18.96C253.868 17.36 256.012 16.128 258.476 15.264C260.94 14.368 263.66 13.92 266.635 13.92C269.58 13.92 272.284 14.368 274.748 15.264C277.212 16.128 279.356 17.36 281.18 18.96C283.004 20.528 284.412 22.368 285.404 24.48C286.428 26.56 286.94 28.8 286.94 31.2C286.94 33.6 286.428 35.856 285.404 37.968C284.412 40.048 283.004 41.888 281.18 43.488C279.356 45.056 277.212 46.288 274.748 47.184C272.284 48.048 269.58 48.48 266.635 48.48ZM266.635 43.44C268.844 43.44 270.86 43.136 272.684 42.528C274.508 41.888 276.092 41.024 277.436 39.936C278.78 38.816 279.82 37.52 280.556 36.048C281.292 34.544 281.66 32.928 281.66 31.2C281.66 29.472 281.292 27.872 280.556 26.4C279.82 24.896 278.78 23.6 277.436 22.512C276.092 21.392 274.508 20.528 272.684 19.92C270.86 19.28 268.844 18.96 266.635 18.96C264.428 18.96 262.396 19.28 260.54 19.92C258.716 20.528 257.132 21.392 255.788 22.512C254.444 23.6 253.404 24.896 252.668 26.4C251.964 27.872 251.612 29.472 251.612 31.2C251.612 32.928 251.964 34.544 252.668 36.048C253.404 37.52 254.444 38.816 255.788 39.936C257.132 41.024 258.716 41.888 260.54 42.528C262.396 43.136 264.428 43.44 266.635 43.44Z" fill="#B96CE9"/>
<path d="M246 57C246 73.2198 223.313 87.1849 190.706 93.4624C178.902 95.7349 165.798 97 152 97C100.085 97 58 79.0913 58 57" stroke="#B2EB10" stroke-width="6" stroke-linecap="round" stroke-linejoin="round"/>
<path d="M206.75 75.5L246.417 52.5L276.167 63.5" stroke="#B2EB10" stroke-width="6" stroke-linecap="round" stroke-linejoin="round"/>
</svg>
